<svg xmlns="http://www.w3.org/2000/svg" viewBox="0 0 1024 1024" width="1024" height="1024">
  <defs>
    <linearGradient id="bg_gradient" x1="0%" y1="0%" x2="100%" y2="100%">
      <stop offset="0%" style="stop-color:#81D4FA; stop-opacity:1" />
      <stop offset="100%" style="stop-color:#4DB6AC; stop-opacity:1" />
    </linearGradient>
  </defs>

  <rect width="1024" height="1024" rx="200" fill="url(#bg_gradient)" />

  <g transform="translate(180, 250)">
    <rect width="600" height="400" rx="30" fill="white" stroke="#607D8B" stroke-width="15" />
    
    <line x1="0" y1="133" x2="600" y2="133" stroke="#607D8B" stroke-width="8" />
    <line x1="0" y1="266" x2="600" y2="266" stroke="#607D8B" stroke-width="8" />
    
    <text x="60" y="80" font-family="Arial, sans-serif" font-size="60" font-weight="bold" fill="#607D8B">M</text>
    <text x="210" y="80" font-family="Arial, sans-serif" font-size="60" font-weight="bold" fill="#607D8B">T</text>
    <text x="360" y="80" font-family="Arial, sans-serif" font-size="60" font-weight="bold" fill="#607D8B">W</text>
    <text x="510" y="80" font-family="Arial, sans-serif" font-size="60" font-weight="bold" fill="#607D8B">Th</text>
    
    <text x="60" y="213" font-family="Arial, sans-serif" font-size="60" font-weight="bold" fill="#607D8B">20</text>
    <text x="210" y="213" font-family="Arial, sans-serif" font-size="60" font-weight="bold" fill="#607D8B">21</text>
    <text x="360" y="213" font-family="Arial, sans-serif" font-size="60" font-weight="bold" fill="#607D8B">22</text>
    <text x="510" y="346" font-family="Arial, sans-serif" font-size="60" font-weight="bold" fill="#607D8B">24</text>
    
    <path d="M500 320 L530 350 L580 290" fill="none" stroke="#00897B" stroke-width="20" stroke-linecap="round" stroke-linejoin="round" />
  </g>

  <g transform="translate(650, 450) rotate(-20 150 200)">
    <path d="M100 -50 L350 -50 L350 350 L100 350 Z" fill="white" stroke="#1976D2" stroke-width="20" />
    <rect x="120" y="50" width="210" height="180" rx="10" fill="#BBDEFB" />
    <rect x="140" y="80" width="160" height="15" rx="5" fill="white" />
    <rect x="140" y="120" width="160" height="15" rx="5" fill="white" />
    <rect x="140" y="160" width="100" height="15" rx="5" fill="white" />
    <rect x="100" y="350" width="250" height="80" rx="10" fill="#1976D2" />
  
    <path d="M-100 0 L150 0 L150 400 L-100 400 Z" fill="white" stroke="#1976D2" stroke-width="20" />
    <rect x="-80" y="100" width="210" height="180" rx="10" fill="#BBDEFB" />
    <rect x="-60" y="130" width="160" height="15" rx="5" fill="white" />
    <rect x="-60" y="170" width="160" height="15" rx="5" fill="white" />
    <rect x="-60" y="210" width="100" height="15" rx="5" fill="white" />
    <rect x="-100" y="400" width="250" height="80" rx="10" fill="#1976D2" />
    
    <path d="M25 730 C25 770, -75 810, -75 810" fill="none" stroke="#FCE4EC" stroke-width="20" stroke-linecap="round" />
  </g>

  <path d="M350 830 C350 850, 400 870, 450 850 C500 830, 550 850, 550 870" fill="none" stroke="#FCE4EC" stroke-width="15" stroke-linecap="round" />
  
  <circle cx="200" cy="150" r="20" fill="white" opacity="0.6" />
  <path d="M180 150 L220 150 M200 130 L200 170" stroke="white" stroke-width="10" opacity="0.6" />
  
  <circle cx="800" cy="200" r="15" fill="white" opacity="0.6" />
  <circle cx="850" cy="180" r="10" fill="white" opacity="0.6" />
  
  <circle cx="150" cy="900" r="25" fill="#F06292" opacity="0.6" />
  <path d="M125 900 L175 900 M150 875 L150 925" stroke="white" stroke-width="10" opacity="0.6" />
  
  <circle cx="900" cy="900" r="20" fill="white" opacity="0.6" />
  <path d="M880 900 L920 900 M900 880 L900 920" stroke="white" stroke-width="10" opacity="0.6" />
</svg>
